<svg width="16" height="14" viewBox="0 0 16 14" fill="none" xmlns="http://www.w3.org/2000/svg">
<path d="M15 6.00003H3.14L6.77 1.64003C6.93974 1.43581 7.0214 1.17253 6.99702 0.908108C6.97264 0.643682 6.84422 0.39977 6.64 0.230032C6.43578 0.060293 6.1725 -0.0213689 5.90808 0.0030108C5.64365 0.0273905 5.39974 0.155815 5.23 0.360032L0.23 6.36003C0.196361 6.40776 0.166279 6.45789 0.14 6.51003C0.14 6.56003 0.14 6.59003 0.0700002 6.64003C0.0246737 6.75469 0.000941121 6.87674 0 7.00003C0.000941121 7.12332 0.0246737 7.24537 0.0700002 7.36003C0.0700002 7.41003 0.0699999 7.44003 0.14 7.49003C0.166279 7.54217 0.196361 7.59231 0.23 7.64003L5.23 13.64C5.32402 13.7529 5.44176 13.8437 5.57485 13.9059C5.70793 13.9681 5.85309 14.0003 6 14C6.23365 14.0005 6.46009 13.9191 6.64 13.77C6.74126 13.6861 6.82496 13.583 6.88631 13.4666C6.94766 13.3503 6.98546 13.223 6.99754 13.092C7.00961 12.961 6.99573 12.829 6.95669 12.7034C6.91764 12.5777 6.8542 12.4611 6.77 12.36L3.14 8.00003H15C15.2652 8.00003 15.5196 7.89467 15.7071 7.70714C15.8946 7.5196 16 7.26525 16 7.00003C16 6.73481 15.8946 6.48046 15.7071 6.29292C15.5196 6.10539 15.2652 6.00003 15 6.00003Z" fill="black"/>
</svg>
